<svg width="195" height="29" viewBox="0 0 195 29" xmlns="http://www.w3.org/2000/svg" xmlns:xlink="http://www.w3.org/1999/xlink"><defs><path id="a" d="M19.406.123H.154v22.4h19.252V.123z"/><path id="c" d="M.17 22.624h14.984V.008H.17v22.616z"/></defs><g fill="none" fill-rule="evenodd"><path d="M17.633.601h3.693c.111 0 .2.09.2.2v3.694a.2.2 0 0 1-.2.2h-3.693a.2.2 0 0 1-.2-.2V.802a.2.2 0 0 1 .2-.2M17.633 6.412h3.693c.111 0 .2.09.2.2v3.694a.2.2 0 0 1-.2.2h-3.693a.2.2 0 0 1-.2-.2V6.613a.2.2 0 0 1 .2-.201M17.633 12.223h3.693c.111 0 .2.09.2.2v3.694a.2.2 0 0 1-.2.2h-3.693a.2.2 0 0 1-.2-.2v-3.694a.2.2 0 0 1 .2-.2M11.822.601h3.694c.11 0 .2.09.2.2v3.694a.2.2 0 0 1-.2.2h-3.694a.2.2 0 0 1-.2-.2V.802a.2.2 0 0 1 .2-.2M11.822 6.412h3.694c.11 0 .2.09.2.2v3.694a.2.2 0 0 1-.2.2h-3.694a.2.2 0 0 1-.2-.2V6.613a.2.2 0 0 1 .2-.201M11.822 12.223h3.694c.11 0 .2.09.2.2v3.694a.2.2 0 0 1-.2.2h-3.694a.2.2 0 0 1-.2-.2v-3.694a.2.2 0 0 1 .2-.2M6.011.601h3.694c.11 0 .2.09.2.2v3.694a.2.2 0 0 1-.2.2H6.01a.2.2 0 0 1-.2-.2V.802a.2.2 0 0 1 .2-.2M6.011 12.223h3.694c.11 0 .2.09.2.2v3.694a.2.2 0 0 1-.2.2H6.01a.2.2 0 0 1-.2-.2v-3.694a.2.2 0 0 1 .2-.2M.2.601h3.694c.11 0 .2.09.2.2v3.694a.2.2 0 0 1-.2.2H.201a.2.2 0 0 1-.201-.2V.802a.2.2 0 0 1 .2-.2M.2 6.412h3.694c.11 0 .2.09.2.2v3.694a.2.2 0 0 1-.2.2H.201a.2.2 0 0 1-.201-.2V6.613a.2.2 0 0 1 .2-.201M.2 12.223h3.694c.11 0 .2.09.2.2v3.694a.2.2 0 0 1-.2.2H.201a.2.2 0 0 1-.201-.2v-3.694a.2.2 0 0 1 .2-.2M17.633 18.033h3.693c.111 0 .2.09.2.201v3.693a.2.2 0 0 1-.2.201h-3.693a.2.2 0 0 1-.2-.2v-3.694a.2.2 0 0 1 .2-.2M0 21.927v-3.693c0-.11.09-.2.2-.2h3.694c.11 0 .2.09.2.2v3.693a.2.2 0 0 1-.2.201H.2a.2.2 0 0 1-.201-.2M5.81 21.927v-3.693c0-.11.09-.2.202-.2h3.693c.11 0 .2.09.2.2v3.693a.2.2 0 0 1-.2.201H6.012a.2.2 0 0 1-.201-.2M11.622 21.927v-3.693c0-.11.09-.2.2-.2h3.693c.111 0 .201.09.201.2v3.693a.2.2 0 0 1-.2.201h-3.694a.2.2 0 0 1-.2-.2" fill="#E94124"/><path d="M29.254.601h3.964a.2.2 0 0 1 .201.2v17.684h9.445c.11 0 .2.09.2.2v3.242a.2.2 0 0 1-.2.201h-13.61a.2.2 0 0 1-.2-.2V.801a.2.2 0 0 1 .2-.2M48.097 12.599h6.864c-.12-1.957-1.415-3.447-3.282-3.447-2.167 0-3.221 1.43-3.582 3.447m-4.095 1.656c0-4.576 3.101-8.265 7.617-8.265 4.906 0 7.551 3.836 7.616 9.234a.204.204 0 0 1-.202.205H48.037c.3 2.379 1.625 3.99 3.944 3.99 1.538 0 2.461-.672 2.93-1.773a.2.2 0 0 1 .184-.125h3.647c.13 0 .228.123.196.248-.664 2.63-3.074 4.81-6.927 4.81-5.119 0-8.009-3.718-8.009-8.324M65.298 8.52c1.054-1.656 2.559-2.53 4.667-2.53 3.19 0 5.329 2.409 5.329 5.781v10.156a.2.2 0 0 1-.201.2H71.4a.2.2 0 0 1-.2-.2v-9.554c0-1.656-.964-2.83-2.68-2.83-1.807 0-3.132 1.445-3.132 3.553v8.831a.2.2 0 0 1-.2.2h-3.694a.2.2 0 0 1-.2-.2V6.613a.2.2 0 0 1 .2-.201h3.603a.2.2 0 0 1 .2.2V8.52zM88.49 14.375c0-2.95-.963-5.073-3.582-5.073-2.258 0-3.403 2.123-3.403 4.983 0 2.98 1.175 4.862 3.282 4.862 2.439 0 3.703-1.942 3.703-4.772m-11.14-.09c0-4.817 2.74-8.295 6.594-8.295 2.168 0 3.613.994 4.456 2.288V.802c0-.111.09-.2.2-.2h3.694c.11 0 .2.089.2-.071v21.125c0 .382-.09.472-.2.472h-3.543a.2.2 0 0 1-.2-.2V20.11c-.904 1.475-2.5 2.469-4.667 2.469-3.884 0-6.533-3.297-6.533-8.295M95.36 6.412h3.693c.111 0 .201.09.201.2v15.315a.2.2 0 0 1-.2.201H95.36a.2.2 0 0 1-.2-.2V6.612a.2.2 0 0 1 .2-.201M105.908 8.52c1.053-1.656 2.559-2.53 4.666-2.53 3.192 0 5.33 2.409 5.33 5.781v10.156a.2.2 0 0 1-.201.2h-3.694a.2.2 0 0 1-.2-.2v-9.554c0-1.656-.964-2.83-2.68-2.83-1.806 0-3.131 1.445-3.131 3.553v8.831a.2.2 0 0 1-.2.2h-3.694a.2.2 0 0 1-.2-.2V6.613a.2.2 0 0 1 .2-.201h3.603a.2.2 0 0 1 .2.2V8.52z" fill="#FFF"/><g transform="translate(134.848 .057)"><mask id="b" fill="#fff"><use xlink:href="#a"/></mask><path d="M.154 11.383C.154 5 4.128.123 10.48.123c5.2 0 8.312 3.045 8.853 7.028a.202.202 0 0 1-.2.228H15.19a.2.2 0 0 1-.195-.161c-.441-2.077-2.048-3.422-4.514-3.422-3.975 0-5.871 3.312-5.871 7.587 0 4.396 2.288 7.557 5.9 7.557 2.494 0 4.273-1.458 4.613-3.621a.2.2 0 0 1 .197-.172h3.884c.117 0 .212.1.201.218a7.615 7.615 0 0 1-2.36 4.87c-1.476 1.385-3.554 2.288-6.534 2.288-6.052 0-10.357-4.667-10.357-11.14" fill="#FFF" mask="url(#b)"/></g><path d="M156.73.601h3.693c.111 0 .201.09.201.2v21.126a.2.2 0 0 1-.2.201h-3.694a.2.2 0 0 1-.2-.2V.801a.2.2 0 0 1 .2-.2M173.365 22.128a.2.2 0 0 1-.201-.2v-1.606c-1.054 1.415-2.348 2.228-4.516 2.228-3.432 0-5.36-2.198-5.36-5.57V6.613c0-.111.09-.201.201-.201h3.664c.11 0 .2.09.2.2v9.675c0 1.807.813 2.8 2.56 2.8 1.926 0 3.1-1.445 3.1-3.492V6.613c0-.111.09-.201.201-.201h3.693a.2.2 0 0 1 .201.2v15.315a.2.2 0 0 1-.2.201h-3.543zM190.762 14.285c0-2.86-1.144-4.983-3.432-4.983-2.59 0-3.553 2.213-3.553 5.073 0 2.83 1.415 4.772 3.703 4.772 2.108 0 3.282-1.882 3.282-4.862m-7.045 5.916v1.726a.2.2 0 0 1-.2.2h-3.543c-.111 0-.201-.089-.201-.47V.53c0 .16.09.07.2.07h3.694a.2.2 0 0 1 .2.2v7.477c.844-1.294 2.259-2.288 4.396-2.288 3.884 0 6.654 3.478 6.654 8.295 0 4.998-2.65 8.295-6.533 8.295-2.168 0-3.764-.934-4.667-2.379" fill="#FFF"/><path d="M95.36.601h3.693c.111 0 .201.09.201.2v3.694a.2.2 0 0 1-.2.2H95.36a.2.2 0 0 1-.2-.2V.802a.2.2 0 0 1 .2-.2" fill="#E94124"/><g transform="translate(117.79 5.982)"><mask id="d" fill="#fff"><use xlink:href="#c"/></mask><path d="M7.59 12.714c-2.176 0-3.265-1.921-3.265-4.642 0-2.835 1.117-4.752 3.122-4.752 2.176 0 3.522 1.974 3.522 4.666 0 2.72-.916 4.728-3.379 4.728M14.954.43H11.41a.2.2 0 0 0-.2.2v1.757C10.306.942 8.71.008 6.543.008 2.66.008.17 3.545.17 8.302c0 4.652 2.61 7.844 6.494 7.844 2.138 0 3.556-.979 4.456-2.385v2.54c0 2.108-1.114 3.222-3.432 3.222-1.811 0-2.69-.847-3.053-1.747a.202.202 0 0 0-.186-.13H.759a.202.202 0 0 0-.2.235c.522 2.87 3.085 4.743 7.189 4.743 2.288 0 4.275-.542 5.57-1.746 1.144-1.054 1.836-2.53 1.836-4.697V.631a.2.2 0 0 0-.2-.201" fill="#FFF" mask="url(#d)"/></g></g></svg>